<?xml version="1.0" encoding="UTF-8"?>
<svg id="logo" xmlns="http://www.w3.org/2000/svg" viewBox="0 0 196 51.8367" width="160" height="52">
  <g>
    <g>
      <g>
        <polygon points="0 22.1 26.5058 22.1 25.0581 24.0703 0 24.0703 0 22.1 0 22.1"/>
        <polygon points="0 18.4444 29.1986 18.4444 27.7483 20.412 0 20.412 0 18.4444 0 18.4444"/>
        <polygon points="0 25.7584 23.8146 25.7584 22.3733 27.7152 0 27.7152 0 25.7584 0 25.7584"/>
      </g>
      <g>
        <polygon points="196 24.0703 169.5976 24.0703 171.0446 22.1014 196 22.1014 196 24.0703 196 24.0703"/>
        <polygon points="196 27.7152 166.9128 27.7179 168.3537 25.7584 196 25.7584 196 27.7152 196 27.7152"/>
        <polygon points="173.7354 18.4444 196 18.4444 196 20.4133 172.287 20.4147 173.7354 18.4444 173.7354 18.4444"/>
      </g>
    </g>
    <g>
      <path d="m25.6726,27.7152l12.578-17.0885h15.6082c1.7252,0,1.7026.655.8595,1.7975-.8562,1.16-2.3134,3.1546-3.1854,4.3322-.4426.5982-1.2431,1.6881,1.4089,1.6881h20.9101c-1.739,2.3822-7.3796,9.2708-17.5083,9.2708h-30.671Z"/>
      <path d="m97.7056,18.443l-6.8202,9.2722h-17.9924s6.8172-9.2708,6.8233-9.2708l17.9893-.0014h0Z"/>
      <path d="m123.7239,18.4444l-6.8239,9.2708h-17.9856s6.8178-9.2708,6.8239-9.2708h17.9856Z"/>
      <path d="m129.5749,18.4444c.0006,0-1.314,1.7974-1.9528,2.6604-2.2593,3.0533-.2626,6.6104,7.1109,6.6104h28.8853l6.8226-9.2708h-40.8661Z"/>
    </g>
    <g>
      <path d="m34.4685,0l-6.2621,8.5078h34.1288c1.7249,0,1.7023.655.8593,1.7974-.8562,1.1587-2.2894,3.1763-3.1614,4.3538-.4427.5969-1.2431,1.6867,1.4089,1.6867h13.9564s2.2495-3.0614,4.1352-5.6205c2.5655-3.4814.2225-10.7252-8.9486-10.7252h-36.1165Z"/>
      <polygon points="125.2688 16.3458 81.2619 16.3458 93.2956 0 111.2819 0 104.3858 9.3721 112.4136 9.3721 119.3153 0 137.2989 0 125.2688 16.3458 125.2688 16.3458"/>
      <path d="m162.2084,0l-12.0314,16.3458h-19.0593S143.1532,0,143.1592,0h19.0492Z"/>
    </g>
  </g>
  <g>
    <path d="m128.8412,48.3943c-1.7968,0-3.1939-.5507-4.1905-1.6523s-1.495-2.6294-1.495-4.5835v-1.1412c0-1.2981.2431-2.4096.7279-3.3343.4855-.9244,1.1675-1.6327,2.046-2.1243.8785-.4919,1.9082-.7377,3.0885-.7377.944,0,1.7901.1607,2.5375.4818.7475.3218,1.3971.7904,1.9474,1.4065l-1.7306,1.8296c-.4328-.4328-.8724-.7343-1.3181-.9048-.4463-.1705-.9116-.2559-1.3971-.2559-.944,0-1.6692.3184-2.1736.9541-.5051.6364-.7576,1.5706-.7576,2.8033v.9048c0,1.233.233,2.1739.6989,2.8228.4652.6492,1.1439.9737,2.0358.9737.813,0,1.4389-.2684,1.8785-.8062s.659-1.2326.659-2.0855h-2.597v-2.3998h5.489v2.282c0,1.1675-.2235,2.1672-.6692,2.9997-.4457.8332-1.0757,1.469-1.8886,1.9082s-1.7772.659-2.8914.659Z"/>
    <path d="m136.4735,48.0993v-10.0324h2.6949v2.498c.1438-.4457.3376-.8687.58-1.2688.2431-.3997.5577-.7279.9447-.9835.3862-.2559.8684-.3835,1.4457-.3835.1182,0,.2262.0034.3248.0098.0979.0068.2195.023.364.049v2.6361c-.1053-.0128-.2201-.0226-.3444-.0294-.1249-.0064-.2458-.0098-.364-.0098-.7212,0-1.3113.1374-1.7705.4129s-.8002.5706-1.023.8852v6.2162h-2.8522Z"/>
    <path d="m148.65,48.3353c-1.495,0-2.6726-.4328-3.5308-1.2981-.8596-.8657-1.289-2.0524-1.289-3.5605v-.787c0-1.5078.4295-2.6949,1.289-3.5605.8582-.8657,2.0358-1.2985,3.5308-1.2985s2.6719.4328,3.5308,1.2985,1.289,2.0527,1.289,3.5605v.787c0,1.5081-.4301,2.6949-1.289,3.5605-.8589.8653-2.0358,1.2981-3.5308,1.2981Zm0-2.3802c.6165,0,1.0979-.2097,1.4457-.6293s.5213-1.0557.5213-1.9082v-.6688c0-.8525-.1735-1.4882-.5213-1.9082-.3477-.4197-.8292-.6297-1.4457-.6297s-1.0986.21-1.4457.6297c-.3477.42-.5213,1.0557-.5213,1.9082v.6688c0,.8525.1735,1.4886.5213,1.9082.3471.4197.8292.6293,1.4457.6293Z"/>
    <path d="m158.5058,48.2961c-.9838,0-1.7381-.3474-2.2627-1.0426s-.7867-1.6786-.7867-2.9508v-6.2358h2.8522v6.0586c0,.5382.1148.9639.3444,1.2789.2296.3147.5935.472,1.0919.472.3667,0,.6887-.0885.9636-.2657.2755-.1769.4983-.4031.6692-.6786v-6.8652h2.8522v10.0324h-2.6949v-1.7509c-.3018.5773-.7049,1.0459-1.21,1.4065s-1.1114.5412-1.8191.5412Z"/>
    <path d="m166.8261,51.8367v-13.7698h2.6949v1.731c.2755-.603.6719-1.0753,1.1898-1.4163.5186-.341,1.1114-.5115,1.7806-.5115,1.1276,0,2.0095.4298,2.6456,1.2884.6361.8592.9541,2.0362.9541,3.5312v.787c0,1.495-.318,2.6723-.9541,3.5308-.6361.8592-1.5179,1.2887-2.6456,1.2887-1.2985,0-2.2364-.6033-2.813-1.81v5.3506h-2.8522Zm4.5835-11.5668c-.7218,0-1.2985.3082-1.7313.9247v3.7965c.4328.6033,1.0095.9048,1.7313.9048.5902,0,1.0426-.213,1.3572-.6391s.472-1.0392.472-1.8394v-.6688c0-.7998-.1573-1.4129-.472-1.8394-.3147-.4261-.7671-.6395-1.3572-.6395Z"/>
  </g>
</svg>